<svg xmlns="http://www.w3.org/2000/svg" viewBox="0 0 512 512">
  <defs>
    <linearGradient id="bg" x1="0" y1="0" x2="1" y2="1">
      <stop offset="0%" stop-color="#3D5A80"/>
      <stop offset="100%" stop-color="#293241"/>
    </linearGradient>
    <linearGradient id="accent" x1="0" y1="0" x2="0" y2="1">
      <stop offset="0%" stop-color="#EE6C4D"/>
      <stop offset="100%" stop-color="#D9573A"/>
    </linearGradient>
  </defs>
  <rect width="512" height="512" rx="112" fill="url(#bg)"/>
  <!-- subtle inner glow -->
  <rect x="4" y="4" width="504" height="504" rx="108" fill="none" stroke="#98C1D9" stroke-opacity="0.18" stroke-width="2"/>
  <!-- monogram S -->
  <path d="M183 327c0 28 22 50 70 50 47 0 75-26 75-58 0-27-16-44-54-54l-27-7c-18-4-24-10-24-21 0-12 10-19 27-19 19 0 30 9 30 24h44c0-32-28-58-72-58-46 0-72 26-72 56 0 27 16 43 51 51l27 7c18 4 27 10 27 23 0 13-11 21-30 21-23 0-34-10-34-25z" fill="#E0FBFC"/>
  <!-- small accent dot -->
  <circle cx="380" cy="160" r="14" fill="url(#accent)"/>
</svg>
